<svg width="92" height="39" viewBox="0 0 92 39" fill="none" xmlns="http://www.w3.org/2000/svg">
<g clip-path="url(#clip0_36_435)">
<path d="M72.7102 0H19.2907C8.63632 0 0 8.69946 0 19.5005C0 30.3015 8.63632 39.0009 19.2907 39.0009H72.7102C83.3637 39.0009 92.0009 30.3015 92.0009 19.5005C92.0009 8.69946 83.3637 0 72.7102 0Z" fill="#3AB14A"/>
<path d="M89.114 19.5005C89.114 28.6988 81.5322 36.1565 72.1793 36.1565C62.8265 36.1565 55.2447 28.6997 55.2447 19.5005C55.2447 10.3021 62.8265 2.84439 72.1793 2.84439C81.5322 2.84439 89.114 10.3012 89.114 19.5005Z" fill="white"/>
<path d="M72.2271 13.2827H69.9721C69.8396 13.2827 69.7567 13.3749 69.7567 13.523V25.2623C69.7567 25.4104 69.8396 25.5026 69.9721 25.5026H72.2271C72.3596 25.5026 72.4425 25.4104 72.4425 25.2623V13.523C72.4425 13.3749 72.3596 13.2827 72.2271 13.2827Z" fill="#AAAEBA"/>
<path d="M77.9856 13.4709C77.936 13.3411 77.8693 13.2854 77.7368 13.2854H74.7805C74.648 13.2854 74.5651 13.3777 74.5651 13.5257V25.2596C74.5651 25.4076 74.648 25.4999 74.7805 25.4999H77.0356C77.1681 25.4999 77.251 25.4076 77.251 25.2596V20.5302C77.251 20.1401 77.2474 19.7919 77.2402 19.4621V16.9814L77.3078 17.0709L78.6147 20.014V19.9893L79.5142 21.9383C79.7792 22.5486 80.3867 23.995 81.1311 25.3163C81.1987 25.4369 81.2474 25.5017 81.3799 25.5017H84.3308C84.4633 25.5017 84.5462 25.4095 84.5462 25.2614V13.5257C84.5462 13.3777 84.4633 13.2854 84.3308 13.2854H82.0928C81.9603 13.2854 81.8774 13.3777 81.8774 13.5257V14.6715V21.8049L81.8098 21.7153L80.5029 18.7722" fill="#AAAEBA"/>
<path d="M68.237 13.2808H60.2614C60.1289 13.2808 60.046 13.3731 60.046 13.5211V25.2605C60.046 25.4085 60.1289 25.5008 60.2614 25.5008H62.5164C62.6489 25.5008 62.7319 25.4085 62.7319 25.2605V21.5892H66.9599C67.0924 21.5892 67.1753 21.4969 67.1753 21.3489V19.1149C67.1753 18.9669 67.0924 18.8636 66.9599 18.8636L62.7319 18.8746V15.9278L67.6566 15.9434C67.7729 15.9434 67.8558 15.8374 67.8891 15.7086L68.42 13.5577C68.4533 13.3914 68.3867 13.2799 68.2379 13.2799L68.237 13.2808Z" fill="#AAAEBA"/>
<path d="M28.4489 25.3089C28.4489 25.457 28.366 25.5492 28.2335 25.5492H25.9784C25.8459 25.5492 25.763 25.457 25.763 25.3089V13.4928C25.763 13.3448 25.8459 13.2525 25.9784 13.2525H28.2335C28.366 13.2525 28.4489 13.3448 28.4489 13.4928V25.308V25.3089Z" fill="white"/>
<path d="M33.4755 20.31C31.2042 19.3671 30.375 18.4424 30.375 16.4267C30.375 14.0045 32.0163 13.0844 34.6364 13.0844C35.5981 13.0844 36.493 13.269 37.2889 13.565L38.3831 13.9716C38.5327 14.0273 38.5652 14.1196 38.5327 14.2676L37.8531 15.8904C37.8035 16.0384 37.7206 16.0942 37.5881 16.0384L36.6102 15.7058C35.9469 15.4838 35.3168 15.3175 34.6373 15.3175C33.7089 15.3175 33.0789 15.7616 33.0789 16.4277C33.0789 17.0938 33.5926 17.3706 34.5381 17.7589L35.9306 18.3318C38.2353 19.294 39.0645 20.2552 39.0645 22.2709C39.0645 24.8046 37.5223 25.9303 34.7031 25.9303C33.708 25.9303 32.813 25.8197 31.4367 25.3199L30.3425 24.9316C30.1929 24.8758 30.1605 24.7836 30.1929 24.6355L30.8563 22.8072C30.9058 22.6592 30.9888 22.6034 31.1213 22.6592L32.2821 23.0475C33.2601 23.3801 33.9901 23.4916 34.7031 23.4916C35.598 23.4916 36.3615 23.2513 36.3615 22.2709C36.3615 21.7162 35.781 21.2904 34.8689 20.9021L33.4764 20.31H33.4755Z" fill="white"/>
<path d="M50.4453 25.2624C50.4453 25.4104 50.3623 25.5027 50.2298 25.5027H47.991C47.8585 25.5027 47.7756 25.4104 47.7756 25.2624V20.5147H43.4646V25.2624C43.4646 25.4104 43.3817 25.5027 43.2492 25.5027H40.9942C40.8617 25.5027 40.7787 25.4104 40.7787 25.2624V13.5285C40.7787 13.3804 40.8617 13.2881 40.9942 13.2881H43.2492C43.3817 13.2881 43.4646 13.3804 43.4646 13.5285V17.907H47.7756V13.5285C47.7756 13.3804 47.8585 13.2881 47.991 13.2881H50.2298C50.3623 13.2881 50.4453 13.3804 50.4453 13.5285V25.2624Z" fill="white"/>
<path d="M23.991 13.2845H21.7026C21.5701 13.2845 21.4872 13.3585 21.4538 13.4882L20.3443 18.0358C20.2569 18.425 20.174 18.8481 20.0965 19.2812L19.5449 21.8451L18.9869 19.4155C18.8941 18.9331 18.7932 18.4607 18.6859 18.0331L18.3759 16.7557C18.0829 15.5002 17.8378 14.7455 17.626 13.5065C17.6098 13.3585 17.5268 13.2845 17.3934 13.2845H14.283C14.1505 13.2845 14.0676 13.3585 14.0505 13.5065C13.8378 14.7455 13.5935 15.5002 13.3006 16.7557L12.9906 18.0331C12.8833 18.4616 12.7824 18.934 12.6895 19.4155L12.1316 21.8451L11.58 19.2812C11.5025 18.8481 11.4187 18.4241 11.3321 18.0358L10.2226 13.4882C10.1893 13.3585 10.1064 13.2845 9.97388 13.2845H7.68546C7.53584 13.2845 7.45292 13.395 7.5034 13.5431L9.54305 21.9712C9.84139 23.2467 10.0901 24.0197 10.3056 25.277C10.3218 25.425 10.4047 25.499 10.5381 25.499H13.5728C13.5728 25.499 13.5746 25.499 13.5764 25.499H13.7206C13.8531 25.499 13.936 25.425 13.9694 25.2952L15.0789 20.7477C15.1663 20.3584 15.2492 19.9354 15.3267 19.5023L15.8396 17.1212L16.3524 19.5023C16.4299 19.9354 16.5138 20.3594 16.6003 20.7477L17.7098 25.2952C17.7431 25.425 17.8261 25.499 17.9586 25.499H21.1411C21.2736 25.499 21.3565 25.4259 21.3736 25.2779C21.589 24.0206 21.8378 23.2485 22.1361 21.9721L24.1758 13.544C24.2253 13.396 24.1424 13.2854 23.9937 13.2854L23.991 13.2845Z" fill="white"/>
</g>
<defs>
<clipPath id="clip0_36_435">
<rect width="92" height="39" fill="white"/>
</clipPath>
</defs>
</svg>
